<svg version="1.0" xmlns="http://www.w3.org/2000/svg"
    width="500.000000pt" height="500.000000pt" viewBox="0 0 1000.000000 1000.000000"
    preserveAspectRatio="xMidYMid meet">
    <style>
        @keyframes drawBorder {
          0% {
            stroke-dashoffset: 1600%;
            stroke: #949494;
          }
          100% {
            stroke-dashoffset: 0%;
            stroke: #949494;
          }
        }
        @keyframes textAnimation {
          0% {
            stroke-dashoffset: 25%; stroke-dasharray: 0 50%; stroke-width: 20;
            stroke: #949494;
          }
          
          20% {
            stroke-dashoffset: -25%; stroke-dasharray: 50% 0; stroke-width: 0;
            stroke: #949494;
            fill: transparent;
          }
          45%{
            fill: #58595B;
          }
          100%{
            fill: #58595B;
            stroke: #58595B;
          }
        }
        @keyframes colorAnimation1 {
          0%{
            fill-opacity: 0;
          }
          100%{
            fill-opacity: 1;
            stroke-opacity: 0;
          }
        }
        .path1 {
            transform-box: fill-box;
            transform-origin: 50% 50%;
            stroke-dasharray: 1600%;
            animation: drawBorder 2.4s linear forwards, colorAnimation1 1.5s linear 6s forwards;
        }
        .path2 {
          transform-box: fill-box;
          transform-origin: 50% 50%;
          stroke-dasharray: 1600%;
          animation: drawBorder 2.4s linear 2s forwards, colorAnimation1 1.5s linear 6s forwards; 
        }
        .path3 {
          transform-box: fill-box;
          transform-origin: 50% 50%;
          stroke-dasharray: 1600%;
          animation: drawBorder 2.4s linear 4s forwards, colorAnimation1 1.5s linear 6s forwards;
        }
        .text{
          animation: textAnimation 4s linear 5s 3 alternate forwards;
        }
        .laser{
          box-shadow: 0px 0px 150px 40px rgba(255,230,101,0.57);
          -webkit-box-shadow: 0px 0px 150px 40px rgba(255,230,101,0.57);
          -moz-box-shadow: 0px 0px 150px 40px rgba(255,230,101,0.57);
        }
      </style>
      <defs>
        <radialGradient id="lasserGradient">
          <stop offset="0%" stop-color="#ffa0a0" />
          <stop offset="90%" stop-color="#670101" />
          <stop offset="100%" stop-color="#fdffdc" />
        </radialGradient>
        <filter id="laserShadow" x="0" y="0" width="200%" height="200%">
          <feOffset result="offOut" in="SourceGraphic" dx="40" dy="55" />
          <feGaussianBlur result="blurOut" in="offOut" stdDeviation="40" />
          <feBlend in="SourceGraphic" in2="blurOut" mode="normal" />
        </filter>
      </defs>
    <g transform="translate(0.000000,1000.000000) scale(0.100000,-0.100000)"
        fill="none" stroke="nonne" stroke-width="10">

        <path class="path1" id="Path1" fill="#00803E" fill-opacity="0"
            d="M2803 8481 c-54 -34 -80 -102 -60 -160 7 -20 315 -431 685 -913 369
            -481 680 -891 691 -909 22 -36 26 -74 12 -111 -5 -13 -317 -426 -695 -918
            -433 -565 -690 -908 -696 -930 -22 -79 37 -162 122 -175 24 -3 214 -5 423 -3
            308 2 385 6 408 18 36 17 1523 1955 1545 2011 12 32 13 46 4 77 -12 37 -1445
            1918 -1518 1992 l-34 35 -428 3 c-409 2 -428 1 -459 -17z" />

        <path class="path2" id="Path2" fill="#58595B" fill-opacity="0"
            d="M6575 7740 c-11 -4 -32 -21 -46 -36 -38 -42 -3330 -4340 -3356 -4383
            -27 -42 -30 -99 -8 -141 8 -16 43 -50 77 -77 60 -45 66 -48 124 -48 48 0 67 5
            84 20 26 23 3343 4349 3377 4404 26 42 30 99 9 140 -14 26 -97 96 -143 120
            -25 13 -89 14 -118 1z" />
            
        <path class="path3" id="Path3" fill="#000000" fill-opacity="0"
            d="M6325 6425 c-22 -8 -41 -15 -42 -15 -11 -1 -1510 -1973 -1521 -2002
            -12 -31 -13 -45 -4 -76 12 -37 1445 -1918 1518 -1992 l34 -35 425 -3 c368 -2
            429 -1 455 13 57 29 87 104 67 164 -7 20 -310 423 -672 896 -363 473 -674 882
            -692 909 -33 49 -40 86 -24 128 5 13 318 426 695 918 434 566 690 908 696 930
            19 71 -27 149 -101 170 -19 6 -194 10 -414 10 -305 -1 -388 -4 -420 -15z" />

        <circle r="40" fill="url(#lasserGradient)" stroke="none" filter="url(#laserShadow)" class="laser" >
          <animateTransform attributeType="xml" attributeName="transform" type="rotate" by="360" dur="0.05s" repeatCount="indefinite" />
          <animateMotion dur="1.8s" repeatCount="1" fill="freeze" >
            <mpath href="#Path1"/>
          </animateMotion>
          <animateMotion dur="1.8s" repeatCount="1" fill="freeze" begin="2s" >
            <mpath href="#Path2"/>
          </animateMotion>
          <animateMotion dur="1.8s" repeatCount="1" fill="freeze" begin="4s" >
            <mpath href="#Path3"/>
          </animateMotion>
          <animate attributeType="XML" attributeName="opacity" from="1" to="0" begin="6s" dur="0.6s" fill="freeze"/>
        </circle>

        <path  class="text"
            d="M2751 1936 c-17 -20 -2 -48 23 -44 24 3 34 37 14 49 -18 12 -24 11
            -37 -5z" />
        <path class="text"
            d="M2214 1916 c-27 -23 -28 -24 -16 -78 15 -64 9 -86 -24 -94 -29 -7
            -34 -44 -5 -44 36 0 45 -25 31 -85 -11 -47 -11 -57 3 -79 17 -25 68 -43 87
            -31 17 11 6 28 -20 32 -28 4 -42 22 -34 43 15 42 16 101 1 124 -14 21 -14 26
            -2 36 18 15 19 50 4 103 -12 45 0 67 37 67 15 0 24 6 24 15 0 24 -55 18 -86
            -9z" />
        <path class="text"
            d="M4310 1885 c0 -52 -1 -55 -19 -45 -33 17 -96 12 -124 -11 -84 -65
            -36 -243 64 -240 13 0 45 1 72 1 l47 2 0 174 c0 167 -1 174 -20 174 -18 0 -20
            -7 -20 -55z m-26 -86 c23 -18 26 -27 26 -83 0 -35 -5 -67 -12 -74 -13 -13 -76
            -16 -94 -4 -41 27 -46 121 -9 157 30 30 54 31 89 4z" />
        <path class="text"
            d="M6190 1925 c0 -9 9 -15 25 -15 l25 0 0 -139 0 -140 -37 -3 c-26 -2
            -38 -8 -38 -18 0 -12 19 -16 98 -18 90 -2 98 -1 95 15 -2 13 -14 19 -41 21
            l-37 3 0 155 0 154 -45 0 c-33 0 -45 -4 -45 -15z" />
        <path class="text"
            d="M7700 1925 c0 -9 9 -15 24 -15 37 0 49 -22 37 -67 -15 -53 -14 -88 4
            -103 12 -10 12 -15 -2 -36 -15 -23 -14 -82 1 -124 8 -21 -6 -39 -34 -43 -26
            -4 -37 -21 -20 -32 19 -12 70 6 87 31 14 22 14 32 3 79 -14 60 -5 85 31 85 29
            0 24 37 -5 44 -33 8 -39 30 -24 94 12 54 11 55 -16 78 -31 27 -86 33 -86 9z" />
        <path class="text"
            d="M2705 1840 c-9 -15 4 -30 26 -30 18 0 19 -8 19 -123 0 -82 -4 -127
            -12 -135 -17 -17 -53 -15 -68 3 -7 8 -18 15 -26 15 -25 0 -25 -20 0 -45 33
            -33 85 -34 123 -1 l28 24 3 151 3 151 -45 0 c-25 0 -48 -4 -51 -10z" />
        <path class="text"
            d="M3158 1821 c-32 -28 -33 -32 -33 -104 0 -60 4 -79 19 -96 23 -26 79
            -42 117 -34 34 6 79 45 79 68 0 19 -39 20 -46 1 -10 -26 -59 -39 -90 -24 -47
            22 -58 122 -18 163 23 23 80 19 98 -6 10 -15 20 -19 35 -14 28 9 26 19 -10 49
            -44 38 -107 36 -151 -3z" />
        <path class="text"
            d="M4677 1830 c-17 -14 -29 -37 -36 -71 -28 -127 56 -208 164 -160 41
            18 45 23 35 40 -10 20 -11 20 -43 1 -17 -11 -39 -20 -48 -20 -25 0 -69 39 -69
            61 0 17 8 19 90 19 87 0 90 1 90 23 0 42 -21 96 -43 112 -32 22 -109 19 -140
            -5z m113 -30 c11 -11 20 -29 20 -40 0 -18 -7 -20 -65 -20 -58 0 -65 2 -65 20
            0 28 35 60 65 60 14 0 34 -9 45 -20z" />
        <path class="text"
            d="M5145 1828 c4 -13 24 -70 45 -128 52 -146 64 -146 119 -4 56 144 58
            154 33 154 -16 0 -26 -18 -53 -90 -18 -49 -36 -90 -40 -90 -3 0 -19 39 -36 88
            -25 71 -34 88 -53 90 -19 3 -21 0 -15 -20z" />
        <path class="text"
            d="M5687 1830 c-17 -14 -29 -37 -36 -71 -28 -127 56 -208 164 -160 41
            18 45 23 35 40 -10 20 -11 20 -43 1 -17 -11 -39 -20 -48 -20 -25 0 -69 39 -69
            61 0 17 8 19 90 19 87 0 90 1 90 23 0 42 -21 96 -43 112 -32 22 -109 19 -140
            -5z m113 -30 c11 -11 20 -29 20 -40 0 -18 -7 -20 -65 -20 -58 0 -65 2 -65 20
            0 28 35 60 65 60 14 0 34 -9 45 -20z" />
        <path class="text"
            d="M6688 1821 c-27 -24 -32 -36 -35 -87 -5 -71 19 -117 72 -139 95 -40
            184 55 155 166 -17 61 -52 89 -111 89 -39 0 -55 -5 -81 -29z m121 -18 c40 -33
            40 -124 1 -163 -49 -49 -110 -4 -110 80 0 83 57 125 109 83z" />
        <path class="text"
            d="M7160 1675 c0 -168 1 -175 20 -175 17 0 20 7 20 50 0 28 1 50 3 50 1
            0 17 -4 34 -9 47 -14 98 3 125 42 18 25 23 45 23 95 0 59 -2 66 -33 93 -25 22
            -42 29 -75 29 -24 0 -48 -5 -55 -12 -9 -9 -12 -9 -12 0 0 7 -11 12 -25 12
            l-25 0 0 -175z m144 134 c47 -22 57 -100 20 -156 -11 -18 -24 -23 -57 -23 -24
            0 -48 5 -55 12 -7 7 -12 39 -12 74 0 56 3 65 26 83 31 24 43 26 78 10z" />
        <path class="text"
            d="M3650 1730 c0 -19 6 -20 91 -20 81 0 90 2 87 18 -3 14 -17 17 -91 20
            -82 3 -87 2 -87 -18z" />
    </g>
</svg>